<svg width="100" height="100" viewBox="0 0 100 100" fill="none" xmlns="http://www.w3.org/2000/svg">
<circle cx="50" cy="50" r="50" fill="#0099FF"/>
<path d="M32 48H72C72.5304 48 73.0391 48.2107 73.4142 48.5858C73.7893 48.9609 74 49.4696 74 50C74 50.5304 73.7893 51.0391 73.4142 51.4142C73.0391 51.7893 72.5304 52 72 52H32C31.4696 52 30.9609 51.7893 30.5858 51.4142C30.2107 51.0391 30 50.5304 30 50C30 49.4696 30.2107 48.9609 30.5858 48.5858C30.9609 48.2107 31.4696 48 32 48Z" fill="white"/>
<path d="M32.8279 50L49.4159 66.584C49.7915 66.9595 50.0024 67.4689 50.0024 68C50.0024 68.5311 49.7915 69.0404 49.4159 69.416C49.0404 69.7915 48.531 70.0025 47.9999 70.0025C47.4688 70.0025 46.9595 69.7915 46.5839 69.416L28.5839 51.416C28.3977 51.2302 28.2499 51.0095 28.1491 50.7665C28.0482 50.5235 27.9963 50.2631 27.9963 50C27.9963 49.7369 28.0482 49.4764 28.1491 49.2335C28.2499 48.9905 28.3977 48.7698 28.5839 48.584L46.5839 30.584C46.9595 30.2084 47.4688 29.9975 47.9999 29.9975C48.531 29.9975 49.0404 30.2084 49.4159 30.584C49.7915 30.9595 50.0024 31.4689 50.0024 32C50.0024 32.5311 49.7915 33.0404 49.4159 33.416L32.8279 50Z" fill="white"/>
</svg>
