<svg width="100" height="100" viewBox="0 0 100 100" fill="none" xmlns="http://www.w3.org/2000/svg">
<circle cx="50" cy="50" r="50" fill="#0099FF"/>
<path d="M76.5859 63.8539C76.5545 63.7441 76.5075 63.6344 76.4448 63.5403C76.4918 63.603 76.5232 63.6814 76.5545 63.7441C76.5702 63.7755 76.5859 63.8225 76.5859 63.8539ZM76.3037 63.3521C76.2723 63.3051 76.2253 63.2581 76.1782 63.211C76.1939 63.2267 76.2096 63.2267 76.2253 63.2424C76.2566 63.2737 76.288 63.3051 76.3037 63.3521Z" fill="white"/>
<path d="M76.5859 63.8539C76.5545 63.7441 76.5075 63.6344 76.4448 63.5403C76.4918 63.603 76.5232 63.6814 76.5545 63.7441C76.5702 63.7755 76.5859 63.8225 76.5859 63.8539ZM76.2253 63.2424C76.2566 63.2738 76.288 63.3051 76.3037 63.3521C76.2723 63.3051 76.2253 63.2581 76.1783 63.211C76.1939 63.2267 76.2096 63.2267 76.2253 63.2424ZM42.8767 54.2036H40.5249C39.6626 54.2036 38.957 54.9092 38.957 55.7715C38.957 56.6338 39.6626 57.3394 40.5249 57.3394H44.9306C46.7807 59.2678 49.399 60.4751 52.2839 60.4751C54.5417 60.4751 56.6112 59.7539 58.292 58.5153L59.7188 59.942C59.4522 60.9925 59.7188 62.1371 60.534 62.968L64.9711 67.4051C66.1941 68.6124 68.1853 68.6124 69.4082 67.4051C70.6155 66.1822 70.6155 64.191 69.4082 62.968L64.9711 58.531C64.3597 57.9195 63.56 57.6059 62.7447 57.6216C62.4782 57.6059 62.2117 57.6529 61.9451 57.7157L60.5184 56.2889C61.757 54.6113 62.4782 52.5417 62.4782 50.284C62.4782 44.6553 57.9157 40.0928 52.2871 40.0928C50.2802 40.0928 48.4144 40.6729 46.8465 41.6607H40.5249C39.6626 41.6607 38.957 42.3662 38.957 43.2285C38.957 44.0909 39.6626 44.7964 40.5249 44.7964H43.692C43.0805 45.7371 42.6258 46.8033 42.375 47.9322H40.5249C39.6626 47.9322 38.957 48.6377 38.957 49.5C38.957 50.3623 39.6626 51.0679 40.5249 51.0679H42.1241C42.1084 50.8014 42.4691 53.2316 42.8767 54.2036ZM45.6362 52.6358H53.071C54.7956 52.6358 56.2067 51.2247 56.2067 49.5C56.2067 47.7754 54.7956 46.3643 53.071 46.3643H46.4232C47.6932 44.4672 49.8569 43.2285 52.2871 43.2285C56.1754 43.2285 59.3425 46.3956 59.3425 50.2871C59.3425 54.1785 56.1754 57.3425 52.2871 57.3425C49.2297 57.3425 46.6114 55.3827 45.6393 52.6389L45.6362 52.6358Z" fill="white"/>
<path d="M60.9072 35.3892V36.9571C60.8915 37.8037 60.186 38.4936 59.3393 38.4936C58.4927 38.4936 57.7871 37.8037 57.7715 36.9571V35.3892C57.7715 34.5425 57.0502 33.8213 56.2036 33.8213H37.3892C36.5425 33.8213 35.8213 34.5425 35.8213 35.3892V63.6108C35.8213 64.4575 36.5425 65.1787 37.3892 65.1787H54.6357C55.498 65.1787 56.2036 65.8842 56.2036 66.7466C56.2036 67.6089 55.498 68.3144 54.6357 68.3144H37.3892C34.8022 68.3144 32.6855 66.1978 32.6855 63.6108V35.3892C32.6855 32.8022 34.8022 30.6856 37.3892 30.6856H56.2036C58.7906 30.6856 60.9072 32.8022 60.9072 35.3892Z" fill="white"/>
</svg>
