<svg width="223" height="18" viewBox="0 0 223 18" fill="none" xmlns="http://www.w3.org/2000/svg">
<path d="M18.2376 1.68355L13.37 1.68356V0.5625C13.37 0.251719 13.0979 0 12.762 0C12.4262 0 12.1541 0.251719 12.1541 0.5625V1.68328H7.29078V0.5625C7.29078 0.251719 7.01873 0 6.68286 0C6.34698 0 6.07494 0.251719 6.07494 0.5625V1.68328H1.21584C0.544392 1.68328 0 2.187 0 2.80828V16.8708C0 17.492 0.544392 17.9958 1.21584 17.9958H18.2376C18.909 17.9958 19.4534 17.492 19.4534 16.8708V2.80828C19.4534 2.18726 18.909 1.68355 18.2376 1.68355ZM18.2376 16.8708H1.21584V2.80828H6.07494V3.375C6.07494 3.68576 6.34698 3.9375 6.68286 3.9375C7.01873 3.9375 7.29078 3.68576 7.29078 3.375V2.80856H12.1541V3.37528C12.1541 3.68606 12.4262 3.93778 12.762 3.93778C13.0979 3.93778 13.37 3.68606 13.37 3.37528V2.80856H18.2376V16.8708ZM13.9821 8.99605H15.198C15.5336 8.99605 15.8059 8.74405 15.8059 8.43355V7.30855C15.8059 6.99805 15.5336 6.74605 15.198 6.74605H13.9821C13.6466 6.74605 13.3742 6.99805 13.3742 7.30855V8.43355C13.3742 8.74405 13.6466 8.99605 13.9821 8.99605ZM13.9821 13.4958H15.198C15.5336 13.4958 15.8059 13.244 15.8059 12.9333V11.8083C15.8059 11.4978 15.5336 11.2458 15.198 11.2458H13.9821C13.6466 11.2458 13.3742 11.4978 13.3742 11.8083V12.9333C13.3742 13.2443 13.6466 13.4958 13.9821 13.4958ZM10.3346 11.2458H9.11879C8.78322 11.2458 8.51087 11.4978 8.51087 11.8083V12.9333C8.51087 13.244 8.78322 13.4958 9.11879 13.4958H10.3346C10.6702 13.4958 10.9425 13.244 10.9425 12.9333V11.8083C10.9425 11.498 10.6702 11.2458 10.3346 11.2458ZM10.3346 6.74605H9.11879C8.78322 6.74605 8.51087 6.99805 8.51087 7.30855V8.43355C8.51087 8.74405 8.78322 8.99605 9.11879 8.99605H10.3346C10.6702 8.99605 10.9425 8.74405 10.9425 8.43355V7.30855C10.9425 6.99776 10.6702 6.74605 10.3346 6.74605ZM5.47127 6.74605H4.25543C3.91986 6.74605 3.64752 6.99805 3.64752 7.30855V8.43355C3.64752 8.74405 3.91986 8.99605 4.25543 8.99605H5.47127C5.80684 8.99605 6.07919 8.74405 6.07919 8.43355V7.30855C6.07919 6.99776 5.80684 6.74605 5.47127 6.74605ZM5.47127 11.2458H4.25543C3.91986 11.2458 3.64752 11.4978 3.64752 11.8083V12.9333C3.64752 13.244 3.91986 13.4958 4.25543 13.4958H5.47127C5.80684 13.4958 6.07919 13.244 6.07919 12.9333V11.8083C6.07919 11.498 5.80684 11.2458 5.47127 11.2458Z" fill="#9BA1AA" stroke="#9BA1AA" stroke-width="0.00151"/>
</svg>
