<svg width="26" height="24" viewBox="0 0 26 24" fill="none" xmlns="http://www.w3.org/2000/svg">
<path d="M18.6758 0C23.0058 0 25.4502 2.31528 25.4629 6.39648V17.6035C25.4629 21.6835 23.0058 24 18.6758 24H6.78613C2.45614 24 0 21.6835 0 17.6035V6.39648C0 2.31528 2.45614 0 6.78613 0H18.6758ZM7.42285 8.8916C7.0791 8.6876 6.64424 8.6876 6.30176 8.8916C5.95679 9.09559 5.76751 9.46669 5.80566 9.83984V18.1318C5.85532 18.6478 6.31387 19.0322 6.86133 19.0322C7.40989 19.032 7.86705 18.6477 7.91797 18.1318V9.83984C7.95737 9.46675 7.76518 9.0956 7.42285 8.8916ZM13.3682 4.95605C13.0104 4.75205 12.5769 4.75205 12.2344 4.95605C11.8896 5.1589 11.7004 5.53243 11.7373 5.9043V18.1318C11.8022 18.6478 12.2592 19.0322 12.7939 19.0322C13.3426 19.0321 13.7997 18.6478 13.8506 18.1318V5.9043C13.9015 5.53239 13.7117 5.15889 13.3682 4.95605ZM19.21 13.248C18.8675 13.0442 18.4345 13.0441 18.0781 13.248C17.7333 13.4521 17.5438 13.8112 17.5947 14.1963V18.1318C17.6457 18.6478 18.1027 19.0322 18.6514 19.0322C19.1861 19.0322 19.6431 18.6478 19.708 18.1318V14.1963C19.7449 13.8111 19.555 13.452 19.21 13.248Z" fill="#9BA1AA"/>
</svg>
