<svg width="20" height="21" viewBox="0 0 20 21" fill="none" xmlns="http://www.w3.org/2000/svg">
<g clip-path="url(#clip0_15_169)">
<path d="M19.024 8.14263L15.7915 4.91014C15.6343 4.75834 15.4238 4.67434 15.2053 4.67624C14.9868 4.67814 14.7778 4.76578 14.6233 4.92029C14.4688 5.07479 14.3812 5.2838 14.3793 5.5023C14.3774 5.7208 14.4614 5.9313 14.6132 6.08847L17.8457 9.32097C17.9417 9.41891 18.0257 9.52802 18.0957 9.64597C18.0832 9.64597 18.0732 9.6393 18.0607 9.6393L4.99068 9.66597C4.76967 9.66597 4.55771 9.75377 4.40143 9.91005C4.24515 10.0663 4.15735 10.2783 4.15735 10.4993C4.15735 10.7203 4.24515 10.9323 4.40143 11.0886C4.55771 11.2448 4.76967 11.3326 4.99068 11.3326L18.0557 11.306C18.079 11.306 18.0982 11.2943 18.1207 11.2926C18.0468 11.4336 17.953 11.5633 17.8423 11.6776L14.6098 14.9101C14.5303 14.987 14.4668 15.079 14.4231 15.1806C14.3794 15.2823 14.3564 15.3917 14.3555 15.5023C14.3545 15.6129 14.3756 15.7227 14.4175 15.8251C14.4594 15.9275 14.5213 16.0206 14.5995 16.0988C14.6778 16.177 14.7708 16.2389 14.8732 16.2808C14.9756 16.3227 15.0854 16.3438 15.196 16.3428C15.3067 16.3419 15.416 16.3189 15.5177 16.2752C15.6194 16.2315 15.7113 16.1681 15.7882 16.0885L19.0207 12.856C19.6456 12.2309 19.9966 11.3832 19.9966 10.4993C19.9966 9.61542 19.6456 8.76773 19.0207 8.14263H19.024Z" fill="#9BA1AA"/>
<path d="M5.83333 18.8333H4.16667C3.50363 18.8333 2.86774 18.5699 2.3989 18.1011C1.93006 17.6323 1.66667 16.9964 1.66667 16.3333V4.66667C1.66667 4.00363 1.93006 3.36774 2.3989 2.8989C2.86774 2.43006 3.50363 2.16667 4.16667 2.16667H5.83333C6.05435 2.16667 6.26631 2.07887 6.42259 1.92259C6.57887 1.76631 6.66667 1.55435 6.66667 1.33333C6.66667 1.11232 6.57887 0.900358 6.42259 0.744078C6.26631 0.587797 6.05435 0.5 5.83333 0.5H4.16667C3.062 0.501323 2.00296 0.940735 1.22185 1.72185C0.440735 2.50296 0.00132321 3.562 0 4.66667L0 16.3333C0.00132321 17.438 0.440735 18.497 1.22185 19.2782C2.00296 20.0593 3.062 20.4987 4.16667 20.5H5.83333C6.05435 20.5 6.26631 20.4122 6.42259 20.2559C6.57887 20.0996 6.66667 19.8877 6.66667 19.6667C6.66667 19.4457 6.57887 19.2337 6.42259 19.0774C6.26631 18.9211 6.05435 18.8333 5.83333 18.8333Z" fill="#9BA1AA"/>
</g>
<defs>
<clipPath id="clip0_15_169">
<rect width="20" height="20" fill="white" transform="translate(0 0.5)"/>
</clipPath>
</defs>
</svg>
