<svg width="26" height="24" viewBox="0 0 26 24" fill="none" xmlns="http://www.w3.org/2000/svg">
<path d="M18.6758 0C23.0058 0 25.4502 2.31528 25.4629 6.39648V17.6035C25.4629 21.6835 23.0058 24 18.6758 24H6.78613C2.45614 24 0 21.6835 0 17.6035V6.39648C0 2.31528 2.45614 0 6.78613 0H18.6758Z" fill="#9BA1AA"/>
<path d="M18.9901 5.375H6.00996C5.41579 5.375 5.1187 5.375 4.913 5.51533C4.81112 5.58483 4.72693 5.6767 4.66703 5.78371C4.54609 5.99979 4.57565 6.29169 4.63478 6.8755C4.73346 7.84994 4.7828 8.33716 5.04114 8.6855C5.16987 8.85909 5.33309 9.00494 5.52082 9.11416C5.89753 9.33333 6.3934 9.33333 7.38515 9.33333H17.6149C18.6066 9.33333 19.1025 9.33333 19.4793 9.11416C19.667 9.00494 19.8302 8.85909 19.959 8.6855C20.2173 8.33716 20.2666 7.84994 20.3653 6.8755C20.4245 6.29169 20.454 5.99979 20.333 5.78371C20.2732 5.6767 20.1889 5.58483 20.0871 5.51533C19.8814 5.375 19.5843 5.375 18.9901 5.375Z" stroke="white" stroke-width="1.5" stroke-linecap="round" stroke-linejoin="round"/>
<path d="M5.375 9.33337V13.324C5.375 16.2943 5.375 17.7795 6.30249 18.7023C7.22999 19.625 8.72277 19.625 11.7083 19.625H13.2917C16.2772 19.625 17.77 19.625 18.6975 18.7023C19.625 17.7795 19.625 16.2943 19.625 13.324V9.33337" stroke="white" stroke-width="1.5" stroke-linecap="round" stroke-linejoin="round"/>
<path d="M10.9166 11.7084H14.0833" stroke="white" stroke-width="1.5" stroke-linecap="round"/>
</svg>
