<svg width="24" height="24" viewBox="0 0 24 24" fill="none" xmlns="http://www.w3.org/2000/svg">
<path d="M17.6028 0H6.396C2.3148 0 0 2.3148 0 6.396V17.604C0 21.684 2.3148 24 6.396 24H17.6028C21.684 24 24 21.684 24 17.604V6.396C23.988 2.3148 21.684 0 17.6028 0Z" fill="#9BA1AA"/>
<path d="M14.3634 6.90982C14.3634 6.4766 14.3634 6.25999 14.3158 6.08226C14.1865 5.59998 13.8098 5.22328 13.3276 5.09404C12.8596 4.96865 12.1404 4.96865 11.6724 5.09404C11.1901 5.22328 10.8134 5.59998 10.6842 6.08226C10.6366 6.25999 10.6366 6.4766 10.6366 6.90982C10.6366 7.78824 10.6366 10.0908 10.3637 10.3637C10.0908 10.6366 7.78823 10.6366 6.90981 10.6366C6.47659 10.6366 6.25998 10.6366 6.08226 10.6842C5.59998 10.8135 5.22328 11.1902 5.09404 11.6724C4.96865 12.1404 4.96865 12.8596 5.09404 13.3276C5.22328 13.8098 5.59998 14.1866 6.08226 14.3158C6.25998 14.3634 6.47659 14.3634 6.90981 14.3634C7.78823 14.3634 10.0908 14.3634 10.3637 14.6363C10.6366 14.9092 10.6366 15.3483 10.6366 16.2268C10.6366 16.66 10.6366 18.7401 10.6842 18.9178C10.8134 19.4 11.1901 19.7768 11.6724 19.9059C12.1404 20.0314 12.8596 20.0314 13.3276 19.9059C13.8098 19.7768 14.1865 19.4 14.3158 18.9178C14.3634 18.7401 14.3634 16.66 14.3634 16.2268C14.3634 15.3483 14.3634 14.9092 14.6363 14.6363C14.9091 14.3634 17.2117 14.3634 18.0902 14.3634C18.5234 14.3634 18.74 14.3634 18.9178 14.3158C19.4 14.1866 19.7767 13.8098 19.9059 13.3276C20.0314 12.8596 20.0314 12.1404 19.9059 11.6724C19.7767 11.1902 19.4 10.8135 18.9178 10.6842C18.74 10.6366 18.5234 10.6366 18.0902 10.6366C17.2117 10.6366 14.9091 10.6366 14.6363 10.3637C14.3634 10.0908 14.3634 7.78824 14.3634 6.90982Z" fill="white"/>
</svg>
