<svg width="26" height="24" viewBox="0 0 26 24" fill="none" xmlns="http://www.w3.org/2000/svg">
<path d="M7.53711 13.7639C9.33224 13.7639 10.7705 15.1332 10.7705 16.8372V20.928C10.7704 22.6199 9.33218 24.0002 7.53711 24.0002H3.2334C1.45123 24 9.07951e-05 22.6198 0 20.928V16.8372C0 15.1333 1.45117 13.7641 3.2334 13.7639H7.53711ZM22.2295 13.7639C24.0118 13.764 25.4629 15.1332 25.4629 16.8372V20.928C25.4628 22.6199 24.0118 24.0002 22.2295 24.0002H17.9258C16.1308 24.0001 14.6925 22.6198 14.6924 20.928V16.8372C14.6924 15.1333 16.1308 13.7641 17.9258 13.7639H22.2295ZM7.53711 0.000244141C9.33224 0.000264071 10.7705 1.3803 10.7705 3.07349V7.16431C10.7705 8.86827 9.33222 10.2366 7.53711 10.2366H3.2334C1.45119 10.2364 3.5468e-05 8.86815 0 7.16431V3.07349C0 1.38042 1.45117 0.000456838 3.2334 0.000244141H7.53711ZM22.2295 0.000244141C24.0118 0.000327217 25.4629 1.38034 25.4629 3.07349V7.16431C25.4629 8.86823 24.0118 10.2365 22.2295 10.2366H17.9258C16.1308 10.2364 14.6924 8.86819 14.6924 7.16431V3.07349C14.6924 1.38038 16.1308 0.00039278 17.9258 0.000244141H22.2295Z" fill="#9BA1AA"/>
</svg>
