<svg width="37" height="37" viewBox="0 0 37 37" fill="none" xmlns="http://www.w3.org/2000/svg">
<ellipse cx="18.2801" cy="18.6357" rx="18.241" ry="17.8127" fill="#0099FF"/>
<g clip-path="url(#clip0_183_5403)">
<path d="M27.5069 14.0792L25.8645 15.683C25.697 15.8465 25.4263 15.8465 25.2588 15.683L21.3042 11.8213C21.1368 11.6578 21.1368 11.3933 21.3042 11.2298L22.9466 9.626C23.6129 8.97542 24.6959 8.97542 25.3657 9.626L27.5069 11.7169C28.1767 12.3675 28.1767 13.4251 27.5069 14.0792ZM19.8934 12.6075L10.5377 21.7435L9.78245 25.9705C9.67913 26.5411 10.1886 27.0351 10.7729 26.9377L15.1016 26.1966L24.4572 17.0607C24.6247 16.8972 24.6247 16.6328 24.4572 16.4693L20.5026 12.6075C20.3316 12.444 20.0608 12.444 19.8934 12.6075V12.6075ZM14.1895 20.9607C13.9936 20.7693 13.9936 20.4632 14.1895 20.2718L19.6761 14.9141C19.872 14.7228 20.1855 14.7228 20.3815 14.9141C20.5774 15.1055 20.5774 15.4116 20.3815 15.603L14.8949 20.9607C14.699 21.152 14.3855 21.152 14.1895 20.9607V20.9607ZM12.9034 23.8866H14.6135V25.1494L12.3155 25.5426L11.2075 24.4606L11.6101 22.2166H12.9034V23.8866Z" fill="white"/>
</g>
<defs>
<clipPath id="clip0_183_5403">
<rect width="18.241" height="17.8127" fill="white" transform="translate(9.76807 9.1355)"/>
</clipPath>
</defs>
</svg>
