<?xml version="1.0" encoding="UTF-8"?>
<!DOCTYPE svg PUBLIC "-//W3C//DTD SVG 1.1//EN" "http://www.w3.org/Graphics/SVG/1.1/DTD/svg11.dtd">
<!-- Creator: CorelDRAW -->
<svg xmlns="http://www.w3.org/2000/svg" xml:space="preserve" width="23.5492mm" height="35.8165mm" version="1.1" style="shape-rendering:geometricPrecision; text-rendering:geometricPrecision; image-rendering:optimizeQuality; fill-rule:evenodd; clip-rule:evenodd"
viewBox="0 0 343.48 522.41"
 xmlns:xlink="http://www.w3.org/1999/xlink"
 xmlns:xodm="http://www.corel.com/coreldraw/odm/2003">
 <defs>
  <style type="text/css">
   <![CDATA[
    .fil0 {fill:#22548B}
    .fil2 {fill:#FDAD04}
    .fil1 {fill:#FEAD01}
    .fil3 {fill:#FED365}
   ]]>
  </style>
 </defs>
 <g id="Layer_x0020_1">
  <metadata id="CorelCorpID_0Corel-Layer"/>
  <g id="_2683718901568">
   <path class="fil0" d="M286.33 156.33l-1.91 0.02c-9.29,6.64 -20.2,12.39 -29.69,18.99 -10.03,6.98 -46.44,27 -57.6,31.99 -17.19,7.69 -41.65,22.33 -58.21,31.38 -7.43,4.06 -14.15,7.85 -21.11,12.25 -13.1,8.28 -26.68,16.33 -38.86,25.95l-13.47 10.36c-1.81,1.53 -2.56,2.68 -4.38,4.2 -6.23,5.24 -12.06,10.23 -16.88,16.48l-10.49 13.34c-5.44,7.74 -11.62,17.22 -14.65,26.33 -0.83,2.5 -0.74,3.54 -1.72,5.91l-6.62 18.16c-1.24,3.71 -2.67,8.47 -3.82,12.38 -0.93,3.15 -2.73,10.4 -2.73,14.43l18.52 -13.89c18.77,-14.15 38.73,-26.28 58.87,-38.34 20.9,-12.51 66.52,-37.17 82.16,-47.46 3.55,-2.33 6.57,-4.21 10.1,-6.1l61.82 -43.02c13.22,-10.67 26.15,-23.85 34.75,-38.64 8.44,-14.52 15.9,-31.56 15.9,-48.91l0.95 0c0,15.61 -2.16,39.25 -7.64,52.41 -1.96,4.7 -3.71,10.18 -6.25,14.72 -17.42,31.1 -32.71,41.45 -60.99,61.95l-66.93 45.53c-1.18,0.74 -1.92,1.08 -3,1.77 -25.75,16.47 -51.79,33.17 -76.43,51.28 -15.57,11.44 -31.18,23.51 -45.39,36.58 -1.2,1.11 -1.25,1.11 -2.56,2.2l-7.91 7.34c-2.85,2.86 -8.99,7.31 -9.7,11.26 -1.34,7.47 0.38,49.8 2.66,58.21 1.53,5.63 1.72,12.39 3.94,17.02 5.6,-3.75 9.52,-7.82 14.39,-12.3l3.95 -3.68c2.62,-2.5 4.18,-3.25 6.7,-5.69l15.75 -13.8c0.64,-0.59 0.79,-0.71 1.5,-1.36l20.61 -17.52c22.4,-16.97 43.94,-35.07 67.12,-51.07l28.35 -19.31c2.48,-1.84 4.2,-2.79 6.8,-4.63l33.22 -20.16c1.57,-0.85 2.52,-1.37 4.31,-2.36 5.4,-2.96 9.55,-6.03 14.94,-8.89l21.31 -13c9.98,-5.47 19.02,-12.78 28.06,-19.59 6.7,-5.05 13.65,-9.63 19.67,-15.6 4.22,-4.18 7.82,-7.45 12.12,-11.7 19.85,-19.64 42,-49.93 36.87,-79.74 -0.74,-4.27 -1.19,-5.28 -2.27,-9.17 -2.55,-9.23 -7.27,-15.85 -12.58,-23.64 -12.51,-18.34 -31.72,-27.12 -37.74,-33.41l-1.83 0.62c-0.27,2.58 0.21,0.44 -0.53,2.25 -1.1,2.69 -0.81,1.64 -1.45,2.51l0 -4.85z"/>
   <path class="fil1" d="M283.47 122.11c3.44,1.16 2.86,0.49 3.71,4.63 0.35,1.74 0.04,5.8 0.07,7.79 0.05,3.12 0.44,3.67 1.1,6.05 0.88,3.16 0.83,3.09 0.83,7.26 -1.5,3.79 -1.5,0.98 0,4.77l1.91 0c4.67,2.53 5.91,-2.75 14.65,-10.13l3.07 -2.65c1.59,-1.62 3.22,-3.88 4.67,-5.82l4.95 -5.53c4.17,-4.03 3.69,-7.69 7.06,-12l0.89 -1.02c2.65,-3.47 4.08,-11.83 5.13,-15.84 0.85,-3.25 0.58,-6.25 0.59,-9.92 0.01,-7.58 -3.31,-22.9 -8.01,-28.22l-9.5 -12.42c-0.12,-0.16 -0.28,-0.39 -0.4,-0.55l-1.97 -2.8c-3.75,-3.56 -9.25,-6.52 -13.36,-9.51 -0.16,-0.12 -0.39,-0.29 -0.54,-0.41l-7.16 -4.28c-3.38,-1.46 0.1,0.68 -3.5,-2.22 -5.25,-4.23 -2.19,-0.98 -7.42,-3.06 -3.32,-1.32 -1.52,-1.78 -7.1,-3.39l-8.99 -3.4c-4.14,-2.06 -9.87,-3.08 -14.82,-4.24 -3.9,-0.91 -0.41,-0.28 -3.58,-1.19l-8.48 -2c-3.74,-1.59 -8.67,-2.18 -13.86,-2.35 -7.22,-0.22 -15.85,-4.91 -26.64,-4.81 -3.5,0.03 -7,0.01 -10.5,0.01 -6.17,-2.05 3.56,2.05 -1.13,-0.85 -4.84,-3 -15.51,-2.01 -21.75,-2.01 -7.43,0 -15.54,1.13 -22.58,-1.24 -0.23,-0.08 -0.46,-0.2 -0.69,-0.26 -6.12,-1.74 -47.27,1.51 -57.74,1.51 0,10.22 2.43,6.64 5.09,14.92 0.68,2.11 0.36,1.2 1.51,3.26 10.85,19.33 -6.41,18.12 39.15,18.03 2.19,-0 7.71,-0.29 9.52,0.01 5.15,0.84 0.63,-0.07 3.27,1.5 2.2,1.31 -1.47,1.03 4.29,1.43 4.71,0.33 10.41,-0.9 15.14,0.11 5.56,1.19 -1.35,0.34 4.23,1.49 5.25,1.07 2.93,-0.91 7.82,1.71 3.6,1.93 4.21,1.12 9.13,1.35 5.29,0.25 13.71,4.69 19.95,5.78 5.93,1.04 9.55,4.11 15.09,5.83l12.34 5.81c0.19,0.1 0.44,0.22 0.63,0.32 0.19,0.1 0.45,0.21 0.64,0.31 0.19,0.1 0.46,0.2 0.64,0.31l12.71 7.31c0.19,0.1 0.44,0.21 0.64,0.31 4.29,2.13 3.58,3.1 6.95,5.44 3.07,2.13 4.84,5.12 7.53,6.77l5.17 5.32c2.58,2.8 5.18,4.11 7.16,7.81 0.06,0.11 0.18,0.37 0.24,0.47l3.18 4.93c5.58,7 4.56,9.18 8.3,18.24 1.44,3.49 -1.29,0.1 0.79,1.31z"/>
   <path class="fil2" d="M284.42 156.35l1.91 -0.02 1.98 0.09 1.83 -0.62 0.95 -3.19 -1.91 -0c-3.08,-1.29 -1.41,0.81 -1.51,-2.04 -0.12,-3.33 -0.9,-0.9 1.51,-2.73 0,-4.17 0.05,-4.11 -0.83,-7.26 -0.66,-2.38 -1.06,-2.93 -1.1,-6.05 -0.03,-1.99 0.28,-6.05 -0.07,-7.79 -0.84,-4.14 -0.27,-3.47 -3.71,-4.63 0.35,6.05 1.91,3.31 1.91,17.15l-0.95 0c0,-7.91 -3.37,-13.58 -5.93,-20.76l-4.82 -9.48c-0.5,-0.58 -0.86,-0.88 -1.31,-1.55l-11.77 -14.92c-1.6,-1.27 -1.56,-1.37 -3.04,-2.7 -3.56,-3.2 -4.95,-0.23 -3.63,-5.87 -4.1,0.34 -1.72,-0.14 -4.77,1.91 -0.43,-3.94 -1.84,-2.93 -5.17,-5.32l-20.55 -10.88c-3.56,-0.58 -3.84,-1.65 -12.85,-3.38 -0.14,-0.03 -2.04,-0.51 -2.28,-0.58l-29.23 -6.99c-4.29,-0.63 -6.71,-0.26 -11.01,-0.43 -6.66,-0.26 -1.31,-1.97 -19.95,-1.97 -6.9,0 -30.13,-1.16 -36.1,0.11 -2.3,0.49 -3.68,2.07 -4.88,3.7 0.65,2.81 0.79,2.98 2.46,5.17 4.73,6.22 2.92,7.35 5.03,10.21 2.17,2.94 1.55,0.44 3.89,3.74 0.47,0.66 0.93,1.82 1.36,2.46 1.45,2.19 0.87,1.14 1.77,2.04l1.47 1.39c4.03,4.45 6.55,5.35 11.04,8.97 4.47,3.6 8.9,6.76 13.92,8.96 0.2,0.09 0.44,0.22 0.64,0.31l15.24 6.4c1.87,0.84 7.77,0.87 12.75,0.87 1.77,3.21 3.2,4.67 7.63,4.77l2.86 -1.91c0.86,2.14 2.78,2.23 5.41,3.17 6.33,2.24 13.42,3.8 19.27,6.46l3.21 1.56c0.19,0.1 0.42,0.25 0.6,0.35l12.04 5.11c1.8,1.03 -0.49,0.17 1.82,1.04 3.23,1.21 7.78,0.53 10.41,2.93 2.14,1.95 2.55,2.57 5.4,3.17l13.68 5.38c0.2,0.09 0.45,0.21 0.65,0.31l12.84 7.17c5.01,4.84 6.36,1.24 11.87,6.17z"/>
   <path class="fil3" d="M249.16 10.6c2.79,-0.67 1.37,0.12 2.86,-1.91l-2.86 0 0 1.91z"/>
   <polygon class="fil3" points="205.32,127.83 208.18,127.83 208.18,126.87 205.32,126.87 "/>
  </g>
 </g>
</svg>
