<svg width="37" height="37" viewBox="0 0 37 37" fill="none" xmlns="http://www.w3.org/2000/svg">
<path d="M18.5 37C28.7173 37 37 28.7173 37 18.5C37 8.28273 28.7173 0 18.5 0C8.28273 0 0 8.28273 0 18.5C0 28.7173 8.28273 37 18.5 37Z" fill="#0099FF"/>
<path d="M21.1667 25.2446C22.9768 25.1128 24.3325 24.8527 24.5926 24.5926C24.963 24.2222 25.3333 21.6297 25.3333 18.6667C25.3333 18.1406 25.3018 17.3533 25.2763 16.8031C25.2573 16.3931 25.0841 16.0062 24.7938 15.716L21.6174 12.5395C21.3272 12.2493 20.9402 12.076 20.5302 12.057C19.9801 12.0315 19.1928 12 18.6667 12C15.7037 12 13.1111 12.3704 12.7407 12.7407C12.3704 13.1111 12 15.7037 12 18.6667C12 21.6297 12.3704 24.2222 12.7407 24.5926C13.0008 24.8527 14.3565 25.1128 16.1667 25.2446M21.1667 25.2446C20.3988 25.3005 19.5492 25.3333 18.6667 25.3333C17.7842 25.3333 16.9345 25.3005 16.1667 25.2446M21.1667 25.2446V23.6667C21.1667 23.6667 21.1667 21.1667 18.6667 21.1667C16.1667 21.1667 16.1667 23.6667 16.1667 23.6667V25.2446" stroke="white" stroke-width="1.792" stroke-linecap="round" stroke-linejoin="round"/>
</svg>
