<svg width="20" height="21" viewBox="0 0 20 21" fill="none" xmlns="http://www.w3.org/2000/svg">
<g clip-path="url(#clip0_410_6997)">
<path d="M19.0241 8.1427L15.7916 4.9102C15.6344 4.7584 15.4239 4.6744 15.2054 4.6763C14.9869 4.6782 14.7779 4.76584 14.6234 4.92035C14.4689 5.07485 14.3812 5.28386 14.3793 5.50236C14.3774 5.72086 14.4614 5.93136 14.6132 6.08853L17.8457 9.32103C17.9418 9.41897 18.0257 9.52808 18.0957 9.64603C18.0832 9.64603 18.0732 9.63936 18.0607 9.63936L4.99074 9.66603C4.76973 9.66603 4.55777 9.75383 4.40149 9.91011C4.24521 10.0664 4.15741 10.2783 4.15741 10.4994C4.15741 10.7204 4.24521 10.9323 4.40149 11.0886C4.55777 11.2449 4.76973 11.3327 4.99074 11.3327L18.0557 11.306C18.0791 11.306 18.0982 11.2944 18.1207 11.2927C18.0468 11.4337 17.9531 11.5633 17.8424 11.6777L14.6099 14.9102C14.5303 14.9871 14.4668 15.079 14.4232 15.1807C14.3795 15.2824 14.3565 15.3917 14.3555 15.5024C14.3546 15.613 14.3757 15.7227 14.4176 15.8252C14.4595 15.9276 14.5213 16.0206 14.5996 16.0989C14.6778 16.1771 14.7709 16.239 14.8733 16.2809C14.9757 16.3228 15.0854 16.3439 15.1961 16.3429C15.3067 16.3419 15.4161 16.319 15.5177 16.2753C15.6194 16.2316 15.7114 16.1681 15.7882 16.0885L19.0207 12.856C19.6456 12.2309 19.9967 11.3832 19.9967 10.4994C19.9967 9.61548 19.6456 8.76779 19.0207 8.1427H19.0241Z" fill="#9BA1AA"/>
<path d="M5.83333 18.8333H4.16667C3.50363 18.8333 2.86774 18.5699 2.3989 18.1011C1.93006 17.6323 1.66667 16.9964 1.66667 16.3333V4.66667C1.66667 4.00363 1.93006 3.36774 2.3989 2.8989C2.86774 2.43006 3.50363 2.16667 4.16667 2.16667H5.83333C6.05435 2.16667 6.26631 2.07887 6.42259 1.92259C6.57887 1.76631 6.66667 1.55435 6.66667 1.33333C6.66667 1.11232 6.57887 0.900358 6.42259 0.744078C6.26631 0.587797 6.05435 0.5 5.83333 0.5H4.16667C3.062 0.501323 2.00296 0.940735 1.22185 1.72185C0.440735 2.50296 0.00132321 3.562 0 4.66667L0 16.3333C0.00132321 17.438 0.440735 18.497 1.22185 19.2782C2.00296 20.0593 3.062 20.4987 4.16667 20.5H5.83333C6.05435 20.5 6.26631 20.4122 6.42259 20.2559C6.57887 20.0996 6.66667 19.8877 6.66667 19.6667C6.66667 19.4457 6.57887 19.2337 6.42259 19.0774C6.26631 18.9211 6.05435 18.8333 5.83333 18.8333Z" fill="#9BA1AA"/>
</g>
<defs>
<clipPath id="clip0_410_6997">
<rect width="20" height="20" fill="white" transform="translate(0 0.5)"/>
</clipPath>
</defs>
</svg>
