<svg width="37" height="37" viewBox="0 0 37 37" fill="none" xmlns="http://www.w3.org/2000/svg">
<path d="M18.5 37C28.7173 37 37 28.7173 37 18.5C37 8.28273 28.7173 0 18.5 0C8.28273 0 0 8.28273 0 18.5C0 28.7173 8.28273 37 18.5 37Z" fill="#00FF00"/>
<path d="M22.6667 22.8333H22.675M23 20.3333H23.5C24.2766 20.3333 24.6648 20.3333 24.9712 20.4602C25.3795 20.6293 25.704 20.9538 25.8732 21.3622C26 21.6685 26 22.0568 26 22.8333C26 23.6099 26 23.9982 25.8732 24.3045C25.704 24.7128 25.3795 25.0373 24.9712 25.2065C24.6648 25.3333 24.2766 25.3333 23.5 25.3333H13.5C12.7234 25.3333 12.3352 25.3333 12.0289 25.2065C11.6205 25.0373 11.296 24.7128 11.1269 24.3045C11 23.9982 11 23.6099 11 22.8333C11 22.0568 11 21.6685 11.1269 21.3622C11.296 20.9538 11.6205 20.6293 12.0289 20.4602C12.3352 20.3333 12.7234 20.3333 13.5 20.3333H14M18.5 21.1667V12M18.5 21.1667L16 18.6667M18.5 21.1667L21 18.6667" stroke="white" stroke-width="1.536" stroke-linecap="round" stroke-linejoin="round"/>
</svg>
