<svg width="72" height="73" viewBox="0 0 72 73" fill="none" xmlns="http://www.w3.org/2000/svg">
<path d="M31.8818 50.432C31.8818 49.8878 31.9893 49.3486 32.1987 48.8463C32.4084 48.3436 32.715 47.8877 33.1018 47.5046C33.4885 47.1215 33.9474 46.8186 34.4516 46.6137C34.9561 46.4087 35.4956 46.3056 36.0402 46.3104C36.8432 46.3251 37.6241 46.5758 38.2854 47.0317C38.9463 47.4877 39.459 48.1287 39.7578 48.8739C40.057 49.6195 40.1291 50.4364 39.9664 51.2229C39.8034 52.0093 39.4122 52.7302 38.8418 53.2958C38.2714 53.861 37.5472 54.2456 36.7593 54.4016C35.9714 54.5577 35.1548 54.4778 34.4122 54.172C33.6692 53.8666 33.0333 53.3488 32.5832 52.6835C32.1332 52.0185 31.8892 51.2354 31.8818 50.432ZM33.2063 40.3856L32.6911 21.1761C32.6421 20.7143 32.6911 20.2474 32.8346 19.8057C32.9777 19.364 33.2122 18.9574 33.5227 18.6122C33.8333 18.2669 34.2131 17.9909 34.637 17.802C35.0614 17.613 35.5206 17.5154 35.9847 17.5154C36.4491 17.5154 36.9083 17.613 37.3326 17.802C37.7566 17.9909 38.1364 18.2669 38.447 18.6122C38.7575 18.9574 38.992 19.364 39.1351 19.8057C39.2786 20.2474 39.3276 20.7143 39.2786 21.1761L38.8002 40.3856C38.8002 41.1271 38.5058 41.8389 37.9811 42.3633C37.4567 42.8877 36.745 43.1824 36.0034 43.1824C35.2615 43.1824 34.5502 42.8877 34.0258 42.3633C33.5014 41.8389 33.2063 41.1271 33.2063 40.3856Z" fill="#F9B465"/>
<path d="M36 70.12C54.7996 70.12 70.04 54.8797 70.04 36.08C70.04 17.2803 54.7996 2.04004 36 2.04004C17.2002 2.04004 1.95996 17.2803 1.95996 36.08C1.95996 54.8797 17.2002 70.12 36 70.12Z" stroke="#F9B465" stroke-width="3.84" stroke-linecap="round" stroke-linejoin="round"/>
</svg>
