<svg width="100" height="100" viewBox="0 0 100 100" fill="none" xmlns="http://www.w3.org/2000/svg">
<circle cx="50" cy="50" r="50" fill="#0099FF"/>
<path d="M37.9978 65.5C32.5131 65.5 29.7707 65.5 27.8183 64.3293C26.5422 63.5641 25.5142 62.47 24.8507 61.1709C23.8355 59.183 24.1084 56.5547 24.6542 51.2981C25.1097 46.9101 25.3375 44.7159 26.4578 43.1046C27.1932 42.0467 28.1879 41.1796 29.354 40.58C31.1301 39.6667 33.4193 39.6667 37.9978 39.6667H62.0023C66.581 39.6667 68.87 39.6667 70.6461 40.58C71.8122 41.1796 72.807 42.0467 73.5425 43.1046C74.6627 44.7159 74.8905 46.9101 75.3459 51.2981C75.8918 56.5547 76.1646 59.183 75.1494 61.1709C74.486 62.47 73.458 63.5641 72.1819 64.3293C70.2294 65.5 67.4872 65.5 62.0023 65.5" stroke="#F7F8FA" stroke-width="4"/>
<path d="M62.9166 39.6667V34.5C62.9166 29.6288 62.9166 27.1932 61.4033 25.68C59.89 24.1667 57.4544 24.1667 52.5833 24.1667H47.4166C42.5454 24.1667 40.1098 24.1667 38.5965 25.68C37.0833 27.1932 37.0833 29.6288 37.0833 34.5V39.6667" stroke="#F7F8FA" stroke-width="4" stroke-linejoin="round"/>
<path d="M55.1374 60.3333H44.8624C43.0921 60.3333 42.207 60.3333 41.4538 60.6146C40.4496 60.9895 39.5898 61.718 39.0109 62.6839C38.5768 63.4085 38.3621 64.3403 37.9328 66.2037C37.2618 69.1154 36.9264 70.5711 37.1545 71.7385C37.4587 73.2949 38.4069 74.6124 39.7248 75.3099C40.7132 75.8333 42.0963 75.8333 44.8624 75.8333H55.1374C57.9036 75.8333 59.2867 75.8333 60.2751 75.3099C61.5929 74.6124 62.5412 73.2949 62.8453 71.7385C63.0734 70.5711 62.7381 69.1154 62.0672 66.2037C61.6378 64.3403 61.4229 63.4085 60.9889 62.6839C60.41 61.718 59.5502 60.9895 58.5461 60.6146C57.7928 60.3333 56.9078 60.3333 55.1374 60.3333Z" stroke="#F7F8FA" stroke-width="4" stroke-linejoin="round"/>
<path d="M65.5 50H65.5224" stroke="#F7F8FA" stroke-width="4" stroke-linecap="round" stroke-linejoin="round"/>
</svg>
