<svg width="100" height="100" viewBox="0 0 100 100" fill="none" xmlns="http://www.w3.org/2000/svg">
<circle cx="50" cy="50" r="50" fill="#0099FF"/>
<path d="M32.1667 64.7299V40.4577C32.1667 33.9172 32.1667 30.647 34.1804 28.6152C36.194 26.5833 39.4349 26.5833 45.9167 26.5833H55.0834C61.5652 26.5833 64.806 26.5833 66.8197 28.6152C68.8334 30.647 68.8334 33.9172 68.8334 40.4577V64.7299C68.8334 68.1943 68.8334 69.9263 67.7747 70.6081C66.0447 71.7225 63.3703 69.3857 62.0251 68.5375C60.9136 67.8365 60.3581 67.4861 59.7412 67.466C59.0748 67.444 58.5092 67.7801 57.3084 68.5375L52.9292 71.2992C51.7479 72.044 51.1573 72.4166 50.5001 72.4166C49.8428 72.4166 49.2523 72.044 48.0709 71.2992L43.6918 68.5375C42.5804 67.8365 42.0247 67.4861 41.408 67.466C40.7415 67.444 40.176 67.7801 38.975 68.5375C37.63 69.3857 34.9554 71.7225 33.2254 70.6081C32.1667 69.9263 32.1667 68.1943 32.1667 64.7299Z" stroke="white" stroke-width="3.5" stroke-linecap="round" stroke-linejoin="round"/>
<path d="M48.2083 47.2083H41.3333" stroke="white" stroke-width="3.5" stroke-linecap="round" stroke-linejoin="round"/>
<path d="M55.0833 38.0417H41.3333" stroke="white" stroke-width="3.5" stroke-linecap="round" stroke-linejoin="round"/>
</svg>
