<svg width="622" height="78" viewBox="0 0 622 78" fill="none" xmlns="http://www.w3.org/2000/svg">
<path d="M26.336 77.672C21.408 77.672 16.992 76.872 13.088 75.272C9.184 73.672 6.048 71.304 3.68 68.168C1.376 65.032 0.16 61.256 0.0320003 56.84H17.504C17.76 59.336 18.624 61.256 20.096 62.6C21.568 63.88 23.488 64.52 25.856 64.52C28.288 64.52 30.208 63.976 31.616 62.888C33.024 61.736 33.728 60.168 33.728 58.184C33.728 56.52 33.152 55.144 32 54.056C30.912 52.968 29.536 52.072 27.872 51.368C26.272 50.664 23.968 49.864 20.96 48.968C16.608 47.624 13.056 46.28 10.304 44.936C7.552 43.592 5.184 41.608 3.2 38.984C1.216 36.36 0.224 32.936 0.224 28.712C0.224 22.44 2.496 17.544 7.04 14.024C11.584 10.44 17.504 8.648 24.8 8.648C32.224 8.648 38.208 10.44 42.752 14.024C47.296 17.544 49.728 22.472 50.048 28.808H32.288C32.16 26.632 31.36 24.936 29.888 23.72C28.416 22.44 26.528 21.8 24.224 21.8C22.24 21.8 20.64 22.344 19.424 23.432C18.208 24.456 17.6 25.96 17.6 27.944C17.6 30.12 18.624 31.816 20.672 33.032C22.72 34.248 25.92 35.56 30.272 36.968C34.624 38.44 38.144 39.848 40.832 41.192C43.584 42.536 45.952 44.488 47.936 47.048C49.92 49.608 50.912 52.904 50.912 56.936C50.912 60.776 49.92 64.264 47.936 67.4C46.016 70.536 43.2 73.032 39.488 74.888C35.776 76.744 31.392 77.672 26.336 77.672ZM69.2705 17.864C66.3905 17.864 64.0225 17.032 62.1665 15.368C60.3745 13.64 59.4785 11.528 59.4785 9.032C59.4785 6.472 60.3745 4.36 62.1665 2.696C64.0225 0.967995 66.3905 0.103994 69.2705 0.103994C72.0865 0.103994 74.3905 0.967995 76.1825 2.696C78.0385 4.36 78.9665 6.472 78.9665 9.032C78.9665 11.528 78.0385 13.64 76.1825 15.368C74.3905 17.032 72.0865 17.864 69.2705 17.864ZM77.4305 23.432V77H61.0145V23.432H77.4305Z" fill="#F0AB26"/>
<path d="M140.687 31.304C140.687 35.208 139.791 38.792 137.999 42.056C136.207 45.256 133.455 47.848 129.743 49.832C126.031 51.816 121.423 52.808 115.919 52.808H105.743V77H89.327V9.608H115.919C121.295 9.608 125.839 10.536 129.551 12.392C133.263 14.248 136.047 16.808 137.903 20.072C139.759 23.336 140.687 27.08 140.687 31.304ZM114.671 39.752C117.807 39.752 120.143 39.016 121.679 37.544C123.215 36.072 123.983 33.992 123.983 31.304C123.983 28.616 123.215 26.536 121.679 25.064C120.143 23.592 117.807 22.856 114.671 22.856H105.743V39.752H114.671ZM165.649 22.76V36.392H187.633V49.064H165.649V63.848H190.513V77H149.233V9.608H190.513V22.76H165.649ZM226.419 9.608C233.523 9.608 239.731 11.016 245.043 13.832C250.355 16.648 254.451 20.616 257.331 25.736C260.275 30.792 261.747 36.648 261.747 43.304C261.747 49.896 260.275 55.752 257.331 60.872C254.451 65.992 250.323 69.96 244.947 72.776C239.635 75.592 233.459 77 226.419 77H201.171V9.608H226.419ZM225.363 62.792C231.571 62.792 236.403 61.096 239.859 57.704C243.315 54.312 245.043 49.512 245.043 43.304C245.043 37.096 243.315 32.264 239.859 28.808C236.403 25.352 231.571 23.624 225.363 23.624H217.587V62.792H225.363ZM312.873 65.096H287.721L283.689 77H266.505L290.889 9.608H309.897L334.281 77H316.905L312.873 65.096ZM308.649 52.424L300.297 27.752L292.041 52.424H308.649ZM386.438 30.92C385.222 28.68 383.462 26.984 381.158 25.832C378.918 24.616 376.262 24.008 373.19 24.008C367.878 24.008 363.622 25.768 360.422 29.288C357.222 32.744 355.622 37.384 355.622 43.208C355.622 49.416 357.286 54.28 360.614 57.8C364.006 61.256 368.646 62.984 374.534 62.984C378.566 62.984 381.958 61.96 384.71 59.912C387.526 57.864 389.574 54.92 390.854 51.08H370.022V38.984H405.734V54.248C404.518 58.344 402.438 62.152 399.494 65.672C396.614 69.192 392.934 72.04 388.454 74.216C383.974 76.392 378.918 77.48 373.286 77.48C366.63 77.48 360.678 76.04 355.43 73.16C350.246 70.216 346.182 66.152 343.238 60.968C340.358 55.784 338.918 49.864 338.918 43.208C338.918 36.552 340.358 30.632 343.238 25.448C346.182 20.2 350.246 16.136 355.43 13.256C360.614 10.312 366.534 8.84 373.19 8.84C381.254 8.84 388.038 10.792 393.542 14.696C399.11 18.6 402.79 24.008 404.582 30.92H386.438ZM456.779 65.096H431.627L427.595 77H410.411L434.795 9.608H453.803L478.187 77H460.811L456.779 65.096ZM452.555 52.424L444.203 27.752L435.947 52.424H452.555ZM545.896 77H529.48L502.024 35.432V77H485.608V9.608H502.024L529.48 51.368V9.608H545.896V77ZM602.532 30.92C601.316 28.68 599.556 26.984 597.252 25.832C595.012 24.616 592.356 24.008 589.284 24.008C583.972 24.008 579.716 25.768 576.516 29.288C573.316 32.744 571.716 37.384 571.716 43.208C571.716 49.416 573.38 54.28 576.708 57.8C580.1 61.256 584.74 62.984 590.628 62.984C594.66 62.984 598.052 61.96 600.804 59.912C603.62 57.864 605.668 54.92 606.948 51.08H586.116V38.984H621.828V54.248C620.612 58.344 618.532 62.152 615.588 65.672C612.708 69.192 609.028 72.04 604.548 74.216C600.068 76.392 595.012 77.48 589.38 77.48C582.724 77.48 576.772 76.04 571.524 73.16C566.34 70.216 562.276 66.152 559.332 60.968C556.452 55.784 555.012 49.864 555.012 43.208C555.012 36.552 556.452 30.632 559.332 25.448C562.276 20.2 566.34 16.136 571.524 13.256C576.708 10.312 582.628 8.84 589.284 8.84C597.348 8.84 604.132 10.792 609.636 14.696C615.204 18.6 618.884 24.008 620.676 30.92H602.532Z" fill="#176BC7"/>
</svg>
