<svg width="100" height="100" viewBox="0 0 100 100" fill="none" xmlns="http://www.w3.org/2000/svg">
<circle cx="50" cy="50" r="50" fill="#0099FF"/>
<path d="M57.375 27.7292V31.1667C57.375 34.4076 57.375 36.028 58.3817 37.0349C59.3887 38.0417 61.0091 38.0417 64.25 38.0417H67.6875" stroke="white" stroke-width="3.5" stroke-linecap="round" stroke-linejoin="round"/>
<path d="M32.1667 58.6666V40.3333C32.1667 33.8515 32.1667 30.6106 34.1804 28.597C36.194 26.5833 39.4349 26.5833 45.9167 26.5833H55.4767C56.4133 26.5833 56.8817 26.5833 57.3029 26.7578C57.7239 26.9322 58.0552 27.2634 58.7175 27.9257L67.491 36.6992C68.1532 37.3616 68.4846 37.6928 68.659 38.1139C68.8334 38.535 68.8334 39.0034 68.8334 39.9401V58.6666C68.8334 65.1484 68.8334 68.3893 66.8197 70.403C64.806 72.4166 61.5652 72.4166 55.0834 72.4166H45.9167C39.4349 72.4166 36.194 72.4166 34.1804 70.403C32.1667 68.3893 32.1667 65.1484 32.1667 58.6666Z" stroke="white" stroke-width="3.5" stroke-linecap="round" stroke-linejoin="round"/>
<path d="M41.3333 47.2083H59.6666M41.3333 54.0833H59.6666M41.3333 60.9583H50.8913" stroke="white" stroke-width="3.5" stroke-linecap="round" stroke-linejoin="round"/>
</svg>
