<svg width="150" height="150" viewBox="0 0 150 150" fill="none" xmlns="http://www.w3.org/2000/svg">
<g clip-path="url(#clip0_531_469)">
<rect width="150" height="150" rx="50" fill="#F7F8FA"/>
<path d="M43.648 102.546C39.644 102.546 36.056 101.896 32.884 100.596C29.712 99.296 27.164 97.372 25.24 94.824C23.368 92.276 22.38 89.208 22.276 85.62H36.472C36.68 87.648 37.382 89.208 38.578 90.3C39.774 91.34 41.334 91.86 43.258 91.86C45.234 91.86 46.794 91.418 47.938 90.534C49.082 89.598 49.654 88.324 49.654 86.712C49.654 85.36 49.186 84.242 48.25 83.358C47.366 82.474 46.248 81.746 44.896 81.174C43.596 80.602 41.724 79.952 39.28 79.224C35.744 78.132 32.858 77.04 30.622 75.948C28.386 74.856 26.462 73.244 24.85 71.112C23.238 68.98 22.432 66.198 22.432 62.766C22.432 57.67 24.278 53.692 27.97 50.832C31.662 47.92 36.472 46.464 42.4 46.464C48.432 46.464 53.294 47.92 56.986 50.832C60.678 53.692 62.654 57.696 62.914 62.844H48.484C48.38 61.076 47.73 59.698 46.534 58.71C45.338 57.67 43.804 57.15 41.932 57.15C40.32 57.15 39.02 57.592 38.032 58.476C37.044 59.308 36.55 60.53 36.55 62.142C36.55 63.91 37.382 65.288 39.046 66.276C40.71 67.264 43.31 68.33 46.846 69.474C50.382 70.67 53.242 71.814 55.426 72.906C57.662 73.998 59.586 75.584 61.198 77.664C62.81 79.744 63.616 82.422 63.616 85.698C63.616 88.818 62.81 91.652 61.198 94.2C59.638 96.748 57.35 98.776 54.334 100.284C51.318 101.792 47.756 102.546 43.648 102.546ZM74.6323 53.952C72.2923 53.952 70.3683 53.276 68.8603 51.924C67.4043 50.52 66.6763 48.804 66.6763 46.776C66.6763 44.696 67.4043 42.98 68.8603 41.628C70.3683 40.224 72.2923 39.522 74.6323 39.522C76.9203 39.522 78.7923 40.224 80.2483 41.628C81.7563 42.98 82.5103 44.696 82.5103 46.776C82.5103 48.804 81.7563 50.52 80.2483 51.924C78.7923 53.276 76.9203 53.952 74.6323 53.952ZM81.2623 58.476V102H67.9243V58.476H81.2623Z" fill="#F0AB26"/>
<path d="M128.758 64.872C128.758 68.044 128.03 70.956 126.574 73.608C125.118 76.208 122.882 78.314 119.866 79.926C116.85 81.538 113.106 82.344 108.634 82.344H100.366V102H87.0282V47.244H108.634C113.002 47.244 116.694 47.998 119.71 49.506C122.726 51.014 124.988 53.094 126.496 55.746C128.004 58.398 128.758 61.44 128.758 64.872ZM107.62 71.736C110.168 71.736 112.066 71.138 113.314 69.942C114.562 68.746 115.186 67.056 115.186 64.872C115.186 62.688 114.562 60.998 113.314 59.802C112.066 58.606 110.168 58.008 107.62 58.008H100.366V71.736H107.62Z" fill="#176BC7"/>
<g filter="url(#filter0_d_531_469)">
<path fill-rule="evenodd" clip-rule="evenodd" d="M-61 94L-54.5925 96.619C-47.9908 99.2381 -39.0092 93.7619 -26 99C-12.9908 104.238 10.4908 128.952 23.5 135.5C36.5092 142.048 42.4908 141.143 55.5 143.762C68.5092 146.381 81.3242 143.762 94.3333 131.976C107.342 120.19 123.491 108.5 136.5 105.881C149.509 103.262 158.991 109.714 165.592 117.571L172 125.429V149H165.592C158.991 149 163.009 171 150 171C136.991 171 126.843 193 113.833 193C100.824 193 68.5092 169 55.5 169C42.4908 169 29.6758 162.5 16.6667 162.5C3.6575 162.5 -31.17 165 -44.1791 165C-57.1883 165 -47.9908 149 -54.5925 149H-61V94Z" fill="#0099FF"/>
<path fill-rule="evenodd" clip-rule="evenodd" d="M-61 94L-54.5925 96.619C-47.9908 99.2381 -39.0092 93.7619 -26 99C-12.9908 104.238 10.4908 128.952 23.5 135.5C36.5092 142.048 42.4908 141.143 55.5 143.762C68.5092 146.381 81.3242 143.762 94.3333 131.976C107.342 120.19 123.491 108.5 136.5 105.881C149.509 103.262 158.991 109.714 165.592 117.571L172 125.429V149H165.592C158.991 149 163.009 171 150 171C136.991 171 126.843 193 113.833 193C100.824 193 68.5092 169 55.5 169C42.4908 169 29.6758 162.5 16.6667 162.5C3.6575 162.5 -31.17 165 -44.1791 165C-57.1883 165 -47.9908 149 -54.5925 149H-61V94Z" stroke="black"/>
</g>
<g filter="url(#filter1_d_531_469)">
<path fill-rule="evenodd" clip-rule="evenodd" d="M131.514 0.888727L123.951 0.61994C116.357 0.354764 100.794 -0.184027 85.2859 5.16981C69.778 10.5236 53.9494 21.7617 38.4929 25.6435C23.0363 29.5252 7.7218 26.0428 0.179579 24.3055L-7.47769 22.5643L-6.5524 -3.93264L1.15628 -3.66345C8.7499 -3.39827 24.1673 -2.85989 39.4696 -2.32552C54.7719 -1.79115 70.3354 -1.25236 85.6377 -0.71799C100.94 -0.183622 116.357 0.354764 123.951 0.61994L131.514 0.888727Z" fill="#F0AB26"/>
</g>
</g>
<defs>
<filter id="filter0_d_531_469" x="-69.1" y="84.9" width="249.2" height="115.2" filterUnits="userSpaceOnUse" color-interpolation-filters="sRGB">
<feFlood flood-opacity="0" result="BackgroundImageFix"/>
<feColorMatrix in="SourceAlpha" type="matrix" values="0 0 0 0 0 0 0 0 0 0 0 0 0 0 0 0 0 0 127 0" result="hardAlpha"/>
<feOffset dy="-1"/>
<feGaussianBlur stdDeviation="4.05"/>
<feComposite in2="hardAlpha" operator="out"/>
<feColorMatrix type="matrix" values="0 0 0 0 0 0 0 0 0 0 0 0 0 0 0 0 0 0 0.25 0"/>
<feBlend mode="normal" in2="BackgroundImageFix" result="effect1_dropShadow_531_469"/>
<feBlend mode="normal" in="SourceGraphic" in2="effect1_dropShadow_531_469" result="shape"/>
</filter>
<filter id="filter1_d_531_469" x="-15.5775" y="-11.0326" width="155.191" height="47.5406" filterUnits="userSpaceOnUse" color-interpolation-filters="sRGB">
<feFlood flood-opacity="0" result="BackgroundImageFix"/>
<feColorMatrix in="SourceAlpha" type="matrix" values="0 0 0 0 0 0 0 0 0 0 0 0 0 0 0 0 0 0 127 0" result="hardAlpha"/>
<feOffset dy="1"/>
<feGaussianBlur stdDeviation="4.05"/>
<feComposite in2="hardAlpha" operator="out"/>
<feColorMatrix type="matrix" values="0 0 0 0 0 0 0 0 0 0 0 0 0 0 0 0 0 0 0.25 0"/>
<feBlend mode="normal" in2="BackgroundImageFix" result="effect1_dropShadow_531_469"/>
<feBlend mode="normal" in="SourceGraphic" in2="effect1_dropShadow_531_469" result="shape"/>
</filter>
<clipPath id="clip0_531_469">
<rect width="150" height="150" rx="50" fill="white"/>
</clipPath>
</defs>
</svg>
