<svg width="24" height="25" viewBox="0 0 24 25" fill="none" xmlns="http://www.w3.org/2000/svg">
<path d="M4 7.5C4.58984 8.10684 6.15973 10.5 7 10.5C7.84027 10.5 9.41016 8.10684 10 7.5M7 9.5V2.5" stroke="#141B34" stroke-width="1.5" stroke-linecap="round" stroke-linejoin="round"/>
<path d="M4 13.5V15.0442C4 18.2892 4 19.9117 4.88607 21.0107C5.06508 21.2327 5.26731 21.4349 5.48933 21.6139C6.58831 22.5 8.21082 22.5 11.4558 22.5C12.1614 22.5 12.5141 22.5 12.8372 22.386C12.9044 22.3623 12.9702 22.335 13.0345 22.3043C13.3436 22.1564 13.593 21.907 14.0919 21.4081L18.8284 16.6716C19.4065 16.0935 19.6955 15.8045 19.8478 15.4369C20 15.0694 20 14.6606 20 13.8431V10.5C20 6.72876 20 4.84315 18.8284 3.67157C17.6569 2.5 15.7712 2.5 12 2.5M13 22V21.5C13 18.6716 13 17.2574 13.8787 16.3787C14.7574 15.5 16.1716 15.5 19 15.5H19.5" stroke="#141B34" stroke-width="1.5" stroke-linecap="round" stroke-linejoin="round"/>
</svg>
