<svg width="25" height="25" viewBox="0 0 25 25" fill="none" xmlns="http://www.w3.org/2000/svg">
<path d="M17.1094 4.79697L18.1407 3.76573C18.9951 2.91142 20.3802 2.91142 21.2344 3.76573C22.0887 4.62004 22.0887 6.00513 21.2344 6.85945L20.2032 7.89069M17.1094 4.79697L10.1726 11.7337C9.64399 12.2625 9.26895 12.9248 9.08763 13.6501L8.3335 16.6667L11.3501 15.9125C12.0754 15.7312 12.7377 15.3561 13.2664 14.8275L20.2032 7.89069M17.1094 4.79697L20.2032 7.89069" stroke="#141B34" stroke-width="1.5" stroke-linejoin="round"/>
<path d="M18.8458 13.0208C18.8458 16.4453 19.7916 19.1992 18.8458 20.3517C18.6727 20.5626 18.4793 20.7561 18.2682 20.9292C17.1158 21.875 15.4035 21.875 11.9791 21.875H11.4583C7.52996 21.875 5.56579 21.875 4.34541 20.6546C3.12503 19.4343 3.125 17.47 3.125 13.5417V13.0208C3.125 9.59638 3.125 7.88417 4.07077 6.73172C4.24393 6.52074 4.4374 6.32727 4.64837 6.15411C5.80082 5.20834 7.51304 5.20834 10.9375 5.20834" stroke="#141B34" stroke-width="1.5" stroke-linecap="round" stroke-linejoin="round"/>
</svg>
